<svg width="839" height="1221" viewBox="0 0 839 1221" fill="none" xmlns="http://www.w3.org/2000/svg">
<path d="M48.0146 325.323C43.1925 298.133 61.3252 272.182 88.5151 267.36L374.059 216.718L382.791 265.95C387.613 293.14 369.48 319.091 342.29 323.913L56.7458 374.554L48.0146 325.323Z" fill="url(#paint0_linear_7_3)"/>
<path d="M137.747 258.628L172.672 455.555L74.2083 473.018L48.0146 325.323C43.1925 298.133 61.3252 272.182 88.5151 267.36L137.747 258.628Z" fill="url(#paint1_linear_7_3)"/>
<path d="M172.672 455.555L183.149 514.633L84.6858 532.096L74.2083 473.018L172.672 455.555Z" fill="url(#paint2_linear_7_3)"/>
<path d="M183.149 514.633L193.627 573.712L144.395 582.443C117.205 587.265 91.2541 569.132 86.432 541.942L84.6858 532.096L183.149 514.633Z" fill="url(#paint3_linear_7_3)"/>
<path d="M183.149 514.633L281.613 497.171C308.803 492.349 326.935 466.398 322.113 439.208L313.382 389.976L214.919 407.439C187.729 412.261 169.596 438.212 174.418 465.402L183.149 514.633Z" fill="url(#paint4_linear_7_3)"/>
<path d="M27.0596 207.166C22.2375 179.976 40.3702 154.025 67.5602 149.203L116.792 140.472L125.523 189.704C130.345 216.894 112.213 242.845 85.0226 247.667L35.7909 256.398L27.0596 207.166Z" fill="url(#paint5_linear_7_3)"/>
<path d="M136.485 136.98C131.663 109.79 149.795 83.8388 176.985 79.0166L226.217 70.2854L243.679 168.749C248.501 195.939 230.369 221.89 203.179 226.712L153.947 235.443L136.485 136.98Z" fill="url(#paint6_linear_7_3)"/>
<path d="M245.91 66.7929C241.087 39.603 259.22 13.6521 286.41 8.82994L335.642 0.098718L361.836 147.794C366.658 174.984 348.525 200.935 321.335 205.757L272.103 214.488L245.91 66.7929Z" fill="url(#paint7_linear_7_3)"/>
<path d="M300.395 683.25C308.738 730.289 277.368 775.184 230.329 783.526C183.291 791.868 138.396 760.499 130.053 713.46C121.711 666.422 153.081 621.527 200.119 613.184C247.158 604.842 292.053 636.212 300.395 683.25Z" fill="url(#paint8_linear_7_3)"/>
<path d="M760.319 757.902C768.317 731.472 753.375 703.562 726.944 695.564L449.374 611.57L434.893 659.427C426.895 685.858 441.837 713.768 468.268 721.766L745.838 805.759L760.319 757.902Z" fill="url(#paint9_linear_7_3)"/>
<path d="M679.087 681.082L621.161 872.51L716.875 901.473L760.319 757.902C768.317 731.472 753.375 703.562 726.944 695.564L679.087 681.082Z" fill="url(#paint10_linear_7_3)"/>
<path d="M621.161 872.51L603.783 929.938L699.497 958.901L716.875 901.473L621.161 872.51Z" fill="url(#paint11_linear_7_3)"/>
<path d="M603.783 929.938L586.405 987.366L634.262 1001.85C660.692 1009.85 688.602 994.903 696.6 968.473L699.497 958.901L603.783 929.938Z" fill="url(#paint12_linear_7_3)"/>
<path d="M603.783 929.938L508.069 900.975C481.638 892.977 466.696 865.067 474.694 838.636L489.175 790.779L584.889 819.743C611.32 827.741 626.262 855.65 618.264 882.081L603.783 929.938Z" fill="url(#paint13_linear_7_3)"/>
<path d="M795.075 643.046C803.073 616.615 788.131 588.705 761.7 580.707L713.843 566.226L699.362 614.083C691.364 640.513 706.306 668.423 732.737 676.421L780.594 690.903L795.075 643.046Z" fill="url(#paint14_linear_7_3)"/>
<path d="M694.7 560.433C702.698 534.002 687.756 506.092 661.325 498.094L613.468 483.613L584.505 579.327C576.507 605.757 591.45 633.667 617.88 641.665L665.737 656.147L694.7 560.433Z" fill="url(#paint15_linear_7_3)"/>
<path d="M594.326 477.82C602.324 451.39 587.381 423.48 560.95 415.482L513.093 401L469.648 544.571C461.651 571.001 476.593 598.911 503.024 606.909L550.881 621.391L594.326 477.82Z" fill="url(#paint16_linear_7_3)"/>
<path d="M467.452 1083.54C453.616 1129.26 479.467 1177.54 525.192 1191.38C570.917 1205.22 619.201 1179.37 633.037 1133.64C646.874 1087.92 621.023 1039.63 575.298 1025.8C529.573 1011.96 481.289 1037.81 467.452 1083.54Z" fill="url(#paint17_linear_7_3)"/>
<defs>
<linearGradient id="paint0_linear_7_3" x1="168.254" y1="29.7849" x2="299.746" y2="771.215" gradientUnits="userSpaceOnUse">
<stop stop-color="white"/>
<stop offset="1" stop-color="#AAFFAA"/>
</linearGradient>
<linearGradient id="paint1_linear_7_3" x1="168.254" y1="29.7849" x2="299.746" y2="771.215" gradientUnits="userSpaceOnUse">
<stop stop-color="white"/>
<stop offset="1" stop-color="#AAFFAA"/>
</linearGradient>
<linearGradient id="paint2_linear_7_3" x1="168.254" y1="29.7849" x2="299.746" y2="771.215" gradientUnits="userSpaceOnUse">
<stop stop-color="white"/>
<stop offset="1" stop-color="#AAFFAA"/>
</linearGradient>
<linearGradient id="paint3_linear_7_3" x1="168.254" y1="29.7849" x2="299.746" y2="771.215" gradientUnits="userSpaceOnUse">
<stop stop-color="white"/>
<stop offset="1" stop-color="#AAFFAA"/>
</linearGradient>
<linearGradient id="paint4_linear_7_3" x1="168.254" y1="29.7849" x2="299.746" y2="771.215" gradientUnits="userSpaceOnUse">
<stop stop-color="white"/>
<stop offset="1" stop-color="#AAFFAA"/>
</linearGradient>
<linearGradient id="paint5_linear_7_3" x1="168.254" y1="29.7849" x2="299.746" y2="771.215" gradientUnits="userSpaceOnUse">
<stop stop-color="white"/>
<stop offset="1" stop-color="#AAFFAA"/>
</linearGradient>
<linearGradient id="paint6_linear_7_3" x1="168.254" y1="29.7849" x2="299.746" y2="771.215" gradientUnits="userSpaceOnUse">
<stop stop-color="white"/>
<stop offset="1" stop-color="#AAFFAA"/>
</linearGradient>
<linearGradient id="paint7_linear_7_3" x1="168.254" y1="29.7849" x2="299.746" y2="771.215" gradientUnits="userSpaceOnUse">
<stop stop-color="white"/>
<stop offset="1" stop-color="#AAFFAA"/>
</linearGradient>
<linearGradient id="paint8_linear_7_3" x1="168.254" y1="29.7849" x2="299.746" y2="771.215" gradientUnits="userSpaceOnUse">
<stop stop-color="white"/>
<stop offset="1" stop-color="#AAFFAA"/>
</linearGradient>
<linearGradient id="paint9_linear_7_3" x1="675.807" y1="450.238" x2="457.713" y2="1170.96" gradientUnits="userSpaceOnUse">
<stop stop-color="white"/>
<stop offset="1" stop-color="#AAFFAA"/>
</linearGradient>
<linearGradient id="paint10_linear_7_3" x1="675.807" y1="450.238" x2="457.713" y2="1170.96" gradientUnits="userSpaceOnUse">
<stop stop-color="white"/>
<stop offset="1" stop-color="#AAFFAA"/>
</linearGradient>
<linearGradient id="paint11_linear_7_3" x1="675.807" y1="450.238" x2="457.713" y2="1170.96" gradientUnits="userSpaceOnUse">
<stop stop-color="white"/>
<stop offset="1" stop-color="#AAFFAA"/>
</linearGradient>
<linearGradient id="paint12_linear_7_3" x1="675.807" y1="450.238" x2="457.713" y2="1170.96" gradientUnits="userSpaceOnUse">
<stop stop-color="white"/>
<stop offset="1" stop-color="#AAFFAA"/>
</linearGradient>
<linearGradient id="paint13_linear_7_3" x1="675.807" y1="450.238" x2="457.713" y2="1170.96" gradientUnits="userSpaceOnUse">
<stop stop-color="white"/>
<stop offset="1" stop-color="#AAFFAA"/>
</linearGradient>
<linearGradient id="paint14_linear_7_3" x1="675.807" y1="450.238" x2="457.713" y2="1170.96" gradientUnits="userSpaceOnUse">
<stop stop-color="white"/>
<stop offset="1" stop-color="#AAFFAA"/>
</linearGradient>
<linearGradient id="paint15_linear_7_3" x1="675.807" y1="450.238" x2="457.713" y2="1170.96" gradientUnits="userSpaceOnUse">
<stop stop-color="white"/>
<stop offset="1" stop-color="#AAFFAA"/>
</linearGradient>
<linearGradient id="paint16_linear_7_3" x1="675.807" y1="450.238" x2="457.713" y2="1170.96" gradientUnits="userSpaceOnUse">
<stop stop-color="white"/>
<stop offset="1" stop-color="#AAFFAA"/>
</linearGradient>
<linearGradient id="paint17_linear_7_3" x1="675.807" y1="450.238" x2="457.713" y2="1170.96" gradientUnits="userSpaceOnUse">
<stop stop-color="white"/>
<stop offset="1" stop-color="#AAFFAA"/>
</linearGradient>
</defs>
</svg>
